<svg width="33" height="32" viewBox="0 0 33 32" fill="none" xmlns="http://www.w3.org/2000/svg">
<path d="M16.4658 5.62964C17.841 5.62964 19.1599 6.17593 20.1323 7.14834C21.1047 8.12075 21.651 9.43962 21.651 10.8148C21.651 12.19 21.1047 13.5089 20.1323 14.4813C19.1599 15.4537 17.841 16 16.4658 16C15.0906 16 13.7718 15.4537 12.7993 14.4813C11.8269 13.5089 11.2806 12.19 11.2806 10.8148C11.2806 9.43962 11.8269 8.12075 12.7993 7.14834C13.7718 6.17593 15.0906 5.62964 16.4658 5.62964ZM16.4658 18.5926C22.1954 18.5926 26.8362 20.913 26.8362 23.7778V25.3704C26.8362 25.9226 26.3885 26.3704 25.8362 26.3704H7.09546C6.54317 26.3704 6.09546 25.9226 6.09546 25.3704V23.7778C6.09546 20.913 10.7362 18.5926 16.4658 18.5926Z" fill="#234A7C" stroke="#234A7C" stroke-width="2"/>
</svg>
