<svg width="32" height="32" viewBox="0 0 32 32" fill="none" xmlns="http://www.w3.org/2000/svg">
<rect width="32" height="32" rx="16" fill="#F45454"/>
<path d="M16.0002 6.81479L16.0002 7.85183" stroke="white" stroke-width="1.42222" stroke-linecap="round" stroke-linejoin="round"/>
<path d="M16.0002 7.85178C12.5676 7.85178 9.77793 10.6414 9.77793 14.074V20.2962C8.74089 20.2962 7.70386 21.3333 7.70386 22.3703H16.0002M16.0002 7.85178C19.4327 7.85178 22.2224 10.6414 22.2224 14.074V20.2962C23.2594 20.2962 24.2964 21.3333 24.2964 22.3703H16.0002" fill="white"/>
<path d="M13.926 23.4073C13.926 24.5481 14.8594 25.4814 16.0001 25.4814C17.1408 25.4814 18.0742 24.5481 18.0742 23.4073" fill="white"/>
<path fill-rule="evenodd" clip-rule="evenodd" d="M16.0002 12.3259C16.3929 12.3259 16.7113 12.6443 16.7113 13.037V17.1852C16.7113 17.5779 16.3929 17.8963 16.0002 17.8963C15.6074 17.8963 15.2891 17.5779 15.2891 17.1852V13.037C15.2891 12.6443 15.6074 12.3259 16.0002 12.3259Z" fill="#F45454"/>
<path fill-rule="evenodd" clip-rule="evenodd" d="M15.2891 19.2593C15.2891 18.8665 15.6074 18.5482 16.0002 18.5482H16.0003C16.393 18.5482 16.7114 18.8665 16.7114 19.2593C16.7114 19.652 16.393 19.9704 16.0003 19.9704H16.0002C15.6074 19.9704 15.2891 19.652 15.2891 19.2593Z" fill="#F45454"/>
</svg>
