<svg width="24" height="24" viewBox="0 0 24 24" fill="none" xmlns="http://www.w3.org/2000/svg">
<g clip-path="url(#clip0_1694_12203)">
<path d="M9.46038 15.0391L6.60231 12.1831C6.44831 12.0292 6.23943 11.9428 6.02164 11.9428C5.80384 11.9428 5.59497 12.0292 5.44096 12.1831C5.28696 12.337 5.20044 12.5457 5.20044 12.7634C5.20044 12.8711 5.22168 12.9779 5.26295 13.0774C5.30422 13.177 5.36471 13.2674 5.44096 13.3436L8.88382 16.784C9.20505 17.105 9.72395 17.105 10.0452 16.784L18.7594 8.07604C18.9134 7.92215 18.9999 7.71342 18.9999 7.49578C18.9999 7.27814 18.9134 7.06942 18.7594 6.91552C18.6054 6.76163 18.3965 6.67517 18.1787 6.67517C17.9609 6.67517 17.7521 6.76163 17.5981 6.91552L9.46038 15.0391Z" fill="#3168AF"/>
</g>
<defs>
<clipPath id="clip0_1694_12203">
<rect width="24" height="24" rx="12" fill="white"/>
</clipPath>
</defs>
</svg>
