<svg width="24" height="24" viewBox="0 0 24 24" fill="none" xmlns="http://www.w3.org/2000/svg">
<path fill-rule="evenodd" clip-rule="evenodd" d="M21 12C21 16.9706 16.9706 21 12 21C7.02944 21 3 16.9706 3 12C3 7.02944 7.02944 3 12 3C16.9706 3 21 7.02944 21 12ZM12.5 6.6001C12.5 6.32396 12.2761 6.1001 12 6.1001C11.7239 6.1001 11.5 6.32396 11.5 6.6001V12.0001C11.5 12.1895 11.607 12.3626 11.7764 12.4473L15.3764 14.2473C15.6234 14.3708 15.9237 14.2707 16.0472 14.0237C16.1707 13.7767 16.0706 13.4764 15.8236 13.3529L12.5 11.6911V6.6001Z" fill="#C6C6C6"/>
</svg>
