<svg width="24" height="24" viewBox="0 0 24 24" fill="none" xmlns="http://www.w3.org/2000/svg">
<rect x="3" y="3" width="18" height="18" rx="9" fill="#3168AF"/>
<path d="M10.406 13.7175L8.68007 11.9928C8.58707 11.8999 8.46093 11.8477 8.32941 11.8477C8.19788 11.8477 8.07175 11.8999 7.97874 11.9928C7.88574 12.0857 7.8335 12.2118 7.8335 12.3432C7.8335 12.4083 7.84632 12.4727 7.87125 12.5329C7.89617 12.593 7.9327 12.6476 7.97874 12.6936L10.0578 14.7712C10.2518 14.9651 10.5652 14.9651 10.7592 14.7712L16.0216 9.51259C16.1146 9.41966 16.1668 9.29361 16.1668 9.16218C16.1668 9.03075 16.1146 8.90471 16.0216 8.81177C15.9286 8.71884 15.8024 8.66663 15.6709 8.66663C15.5394 8.66663 15.4133 8.71884 15.3203 8.81177L10.406 13.7175Z" fill="white"/>
</svg>
