<svg width="33" height="32" viewBox="0 0 33 32" fill="none" xmlns="http://www.w3.org/2000/svg">
<path d="M7 26.7778C6.44772 26.7778 6 26.3301 6 25.7778V12.7606C6 12.4451 6.1489 12.1481 6.40171 11.9593L15.1239 5.44672C15.4788 5.18176 15.9657 5.18176 16.3205 5.44672L25.0427 11.9593C25.2955 12.1481 25.4444 12.4451 25.4444 12.7606V25.7778C25.4444 26.3301 24.9967 26.7778 24.4444 26.7778H19.4444C18.8922 26.7778 18.4444 26.3301 18.4444 25.7778V19.3086C18.4444 18.7564 17.9967 18.3086 17.4444 18.3086H14C13.4477 18.3086 13 18.7564 13 19.3086V25.7778C13 26.3301 12.5523 26.7778 12 26.7778H7Z" fill="#234A7C" stroke="#234A7C" stroke-width="2"/>
</svg>
