<svg width="20" height="20" viewBox="0 0 20 20" fill="none" xmlns="http://www.w3.org/2000/svg">
<path d="M10.0009 8.72746C12.0809 6.63621 17.2821 10.295 10.0009 15C2.71965 10.295 7.9209 6.63621 10.0009 8.72746Z" fill="#234A7C"/>
<path d="M10.8841 1.87509C10.6497 1.64075 10.3318 1.50911 10.0003 1.50911C9.66889 1.50911 9.35101 1.64075 9.1166 1.87509L0.807848 10.1826C0.690655 10.3 0.624883 10.4591 0.625 10.6249C0.625117 10.7908 0.691114 10.9498 0.808473 11.067C0.925831 11.1842 1.08494 11.2499 1.25079 11.2498C1.41664 11.2497 1.57566 11.1837 1.69285 11.0663L2.50035 10.2588V16.8751C2.50035 17.3724 2.69789 17.8493 3.04952 18.2009C3.40115 18.5525 3.87807 18.7501 4.37535 18.7501H15.6253C16.1226 18.7501 16.5995 18.5525 16.9512 18.2009C17.3028 17.8493 17.5003 17.3724 17.5003 16.8751V10.2588L18.3078 11.0663C18.425 11.1837 18.5841 11.2497 18.7499 11.2498C18.9158 11.2499 19.0749 11.1842 19.1922 11.067C19.3096 10.9498 19.3756 10.7908 19.3757 10.6249C19.3758 10.4591 19.31 10.3 19.1928 10.1826L16.2503 7.24134V3.12509C16.2503 2.95933 16.1845 2.80036 16.0673 2.68315C15.9501 2.56594 15.7911 2.50009 15.6253 2.50009H14.3753C14.2096 2.50009 14.0506 2.56594 13.9334 2.68315C13.8162 2.80036 13.7503 2.95933 13.7503 3.12509V4.74134L10.8841 1.87509ZM16.2503 9.00884V16.8751C16.2503 17.0409 16.1845 17.1998 16.0673 17.317C15.9501 17.4342 15.7911 17.5001 15.6253 17.5001H4.37535C4.20959 17.5001 4.05062 17.4342 3.93341 17.317C3.8162 17.1998 3.75035 17.0409 3.75035 16.8751V9.00884L10.0003 2.75884L16.2503 9.00884Z" fill="#234A7C"/>
</svg>
