<svg width="32" height="32" viewBox="0 0 32 32" fill="none" xmlns="http://www.w3.org/2000/svg">
<path d="M20.4442 7.11108H22.6664C23.2558 7.11108 23.821 7.34521 24.2378 7.76196C24.6545 8.17871 24.8887 8.74394 24.8887 9.33331V24.8889C24.8887 25.4783 24.6545 26.0435 24.2378 26.4602C23.821 26.877 23.2558 27.1111 22.6664 27.1111H9.33307C8.7437 27.1111 8.17846 26.877 7.76171 26.4602C7.34497 26.0435 7.11084 25.4783 7.11084 24.8889V9.33331C7.11084 8.74394 7.34497 8.17871 7.76171 7.76196C8.17846 7.34521 8.7437 7.11108 9.33307 7.11108H11.5553" stroke="#C6C6C6" stroke-width="2" stroke-linecap="round" stroke-linejoin="round"/>
<path d="M19.3332 4.88889H12.6665C12.0529 4.88889 11.5554 5.38635 11.5554 6V8.22223C11.5554 8.83588 12.0529 9.33334 12.6665 9.33334H19.3332C19.9469 9.33334 20.4443 8.83588 20.4443 8.22223V6C20.4443 5.38635 19.9469 4.88889 19.3332 4.88889Z" stroke="#C6C6C6" stroke-width="2" stroke-linecap="round" stroke-linejoin="round"/>
<path d="M12 16H20M12 21.3333H20" stroke="#C6C6C6" stroke-width="2" stroke-linecap="round"/>
</svg>
