<svg width="56" height="54" viewBox="0 0 56 54" fill="none" xmlns="http://www.w3.org/2000/svg">
<rect width="54" height="54" rx="27" fill="#E4E4E4"/>
<path d="M27.0003 15.3335C28.5474 15.3335 30.0311 15.9481 31.1251 17.042C32.219 18.136 32.8336 19.6197 32.8336 21.1668C32.8336 22.7139 32.219 24.1977 31.1251 25.2916C30.0311 26.3856 28.5474 27.0002 27.0003 27.0002C25.4532 27.0002 23.9695 26.3856 22.8755 25.2916C21.7815 24.1977 21.1669 22.7139 21.1669 21.1668C21.1669 19.6197 21.7815 18.136 22.8755 17.042C23.9695 15.9481 25.4532 15.3335 27.0003 15.3335ZM27.0003 29.9168C33.4461 29.9168 38.6669 32.5272 38.6669 35.7501V37.5418C38.6669 38.1631 38.1633 38.6668 37.5419 38.6668H16.4586C15.8373 38.6668 15.3336 38.1631 15.3336 37.5418V35.7501C15.3336 32.5272 20.5544 29.9168 27.0003 29.9168Z" stroke="#2D2D2D" stroke-width="2.25"/>
</svg>
