<svg width="32" height="32" viewBox="0 0 32 32" fill="none" xmlns="http://www.w3.org/2000/svg">
<path d="M16.2964 5.46692L16.2964 6.46323Z" fill="#234A7C"/>
<path d="M16.2964 5.46692L16.2964 6.46323" stroke="#234A7C" stroke-width="2" stroke-linecap="round" stroke-linejoin="round"/>
<path d="M13.8704 24.1812C13.8704 25.5155 14.962 26.6071 16.2963 26.6071C17.6305 26.6071 18.7222 25.5155 18.7222 24.1812" fill="#234A7C" stroke="#234A7C" stroke-width="2" stroke-linecap="round" stroke-linejoin="round"/>
<path fill-rule="evenodd" clip-rule="evenodd" d="M16.2965 6.85303C12.2816 6.85303 9.0187 10.1159 9.0187 14.1308V21.4086C7.80574 21.4086 6.59277 22.6215 6.59277 23.8345H16.2965H26.0002C26.0002 22.6215 24.7872 21.4086 23.5743 21.4086V14.1308C23.5743 10.1159 20.3114 6.85303 16.2965 6.85303ZM17.2959 16.8701C17.2959 17.4222 16.8485 17.8698 16.2965 17.8701H16.2959C15.7436 17.8701 15.2959 17.4224 15.2959 16.8701V13.3701C15.2959 12.8178 15.7436 12.3701 16.2959 12.3701H16.2965C16.8485 12.3704 17.2959 12.818 17.2959 13.3701V16.8701ZM16.2959 18.5928C15.7436 18.5928 15.2959 19.0405 15.2959 19.5928C15.2959 20.1451 15.7436 20.5928 16.2959 20.5928H16.296C16.8483 20.5928 17.296 20.1451 17.296 19.5928C17.296 19.0405 16.8483 18.5928 16.296 18.5928H16.2959Z" fill="#234A7C"/>
</svg>
