<svg width="33" height="32" viewBox="0 0 33 32" fill="none" xmlns="http://www.w3.org/2000/svg">
<path d="M7.99976 26.8889C7.44747 26.8889 6.99976 26.4411 6.99976 25.8889V12.8717C6.99976 12.5562 7.14866 12.2592 7.40147 12.0704L16.1237 5.55781C16.4785 5.29285 16.9654 5.29285 17.3203 5.55781L26.0425 12.0704C26.2953 12.2592 26.4442 12.5562 26.4442 12.8717V25.8889C26.4442 26.4411 25.9965 26.8889 25.4442 26.8889H20.4442C19.8919 26.8889 19.4442 26.4411 19.4442 25.8889V19.4197C19.4442 18.8674 18.9965 18.4197 18.4442 18.4197H14.9998C14.4475 18.4197 13.9998 18.8674 13.9998 19.4197V25.8889C13.9998 26.4411 13.552 26.8889 12.9998 26.8889H7.99976Z" stroke="#C6C6C6" stroke-width="2"/>
</svg>
