<svg width="32" height="32" viewBox="0 0 32 32" fill="none" xmlns="http://www.w3.org/2000/svg">
<path fill-rule="evenodd" clip-rule="evenodd" d="M10.5557 7.11084V8.22201C10.5557 9.38795 11.5008 10.3331 12.6668 10.3331H19.3335C20.4994 10.3331 21.4446 9.38795 21.4446 8.22201V7.11084H22.6664C23.2558 7.11084 23.821 7.34497 24.2378 7.76171C24.6545 8.17846 24.8887 8.74369 24.8887 9.33307V24.8886C24.8887 25.478 24.6545 26.0433 24.2378 26.46C23.821 26.8767 23.2558 27.1109 22.6664 27.1109H9.33307C8.7437 27.1109 8.17846 26.8767 7.76171 26.46C7.34497 26.0433 7.11084 25.478 7.11084 24.8886V9.33307C7.11084 8.74369 7.34497 8.17846 7.76171 7.76171C8.17846 7.34497 8.7437 7.11084 9.33307 7.11084H10.5557ZM11 16C11 15.4477 11.4477 15 12 15H20C20.5523 15 21 15.4477 21 16C21 16.5523 20.5523 17 20 17H12C11.4477 17 11 16.5523 11 16ZM11 21.3333C11 20.7811 11.4477 20.3333 12 20.3333H20C20.5523 20.3333 21 20.7811 21 21.3333C21 21.8856 20.5523 22.3333 20 22.3333H12C11.4477 22.3333 11 21.8856 11 21.3333Z" fill="#234A7C"/>
<path d="M19 5H13C12.4477 5 12 5.44772 12 6V8C12 8.55228 12.4477 9 13 9H19C19.5523 9 20 8.55228 20 8V6C20 5.44772 19.5523 5 19 5Z" fill="#234A7C"/>
</svg>
